<svg width="544" height="14" viewBox="0 0 544 14" fill="none" xmlns="http://www.w3.org/2000/svg">
<path fill-rule="evenodd" clip-rule="evenodd" d="M176.051 11.2952C179.767 11.2952 181.652 9.16196 183.316 7.28243C183.741 6.79844 183.704 6.05603 183.228 5.62373C182.752 5.19144 182.022 5.22903 181.597 5.71301C180.063 7.44688 178.736 8.94582 176.051 8.94582C173.361 8.94582 172.04 7.44688 170.505 5.71301C168.841 3.83347 166.961 1.7002 163.245 1.7002C159.529 1.7002 157.643 3.83347 155.98 5.71301C154.445 7.44688 153.124 8.94582 150.434 8.94582C147.744 8.94582 146.422 7.44688 144.888 5.71301C143.224 3.83347 141.343 1.7002 137.623 1.7002C133.907 1.7002 132.022 3.83347 130.362 5.71301C128.828 7.44688 127.502 8.94582 124.817 8.94582C122.131 8.94582 120.805 7.44688 119.271 5.71301C117.607 3.83347 115.726 1.7002 112.01 1.7002C108.294 1.7002 106.409 3.83347 104.75 5.71301C103.215 7.44688 101.894 8.94582 99.2038 8.94582C96.5141 8.94582 95.1923 7.44688 93.6579 5.71301L93.8289 5.90566C93.7919 5.83988 93.7457 5.7741 93.6903 5.71301C92.0265 3.83347 90.1455 1.7002 86.4252 1.7002C82.7094 1.7002 80.8238 3.83347 79.1601 5.71301C77.6257 7.44688 76.2993 8.94582 73.6142 8.94582C70.9245 8.94582 69.6027 7.44688 68.0683 5.71301C66.4046 3.83347 64.5236 1.7002 60.8079 1.7002C57.0921 1.7002 55.2065 3.83347 53.5474 5.71301C52.013 7.44688 50.6913 8.94582 48.0015 8.94582C45.3118 8.94582 43.99 7.44688 42.4556 5.71301C40.7919 3.83347 38.9109 1.7002 35.1952 1.7002C31.4794 1.7002 29.5938 3.83347 27.9347 5.71301C26.4003 7.44688 25.0786 8.94582 22.3888 8.94582C19.6991 8.94582 18.3773 7.44688 16.8429 5.71301C15.1792 3.83347 13.2982 1.7002 9.58247 1.7002C5.86673 1.7002 3.98114 3.83347 2.32199 5.71301L2.30351 5.73181C1.86908 6.21579 1.90605 6.9582 2.38207 7.3905C2.8581 7.82279 3.58368 7.7852 4.01349 7.30122L4.03197 7.28243C5.56633 5.54855 6.8881 4.04962 9.57785 4.04962C12.2676 4.04962 13.5894 5.54855 15.1237 7.28243C16.7875 9.16196 18.6685 11.2952 22.3842 11.2952C26.0999 11.2952 27.9855 9.16196 29.6447 7.28243C31.179 5.54855 32.5008 4.04962 35.1905 4.04962C37.8803 4.04962 39.2021 5.54855 40.7364 7.28243C42.4002 9.16196 44.2812 11.2952 47.9969 11.2952C51.7126 11.2952 53.5982 9.16196 55.2574 7.28243C56.7917 5.54855 58.1135 4.04962 60.8032 4.04962C63.493 4.04962 64.8148 5.54855 66.3491 7.28243C68.0129 9.16196 69.8939 11.2952 73.6096 11.2952C77.3253 11.2952 79.2109 9.16196 80.8747 7.28243C82.409 5.54855 83.7308 4.04962 86.4206 4.04962C88.9994 4.04962 90.3212 5.42638 91.7816 7.07098C91.8185 7.13676 91.8648 7.20254 91.9202 7.26363L91.9387 7.28243C93.6025 9.16196 95.4834 11.2952 99.1992 11.2952C102.915 11.2952 104.801 9.16196 106.46 7.28243C107.994 5.54855 109.316 4.04962 112.006 4.04962C114.695 4.04962 116.017 5.54855 117.551 7.28243C119.215 9.16196 121.096 11.2952 124.812 11.2952C128.528 11.2952 130.413 9.16196 132.072 7.28243C133.607 5.54855 134.933 4.04962 137.618 4.04962C140.308 4.04962 141.63 5.54855 143.164 7.28243C144.828 9.16196 146.709 11.2952 150.425 11.2952C154.14 11.2952 156.026 9.16196 157.69 7.28243C159.224 5.54855 160.546 4.04962 163.236 4.04962C165.925 4.04962 167.247 5.54855 168.781 7.28243C170.454 9.16666 172.335 11.2952 176.051 11.2952Z" fill="#585880" stroke="#585880" stroke-width="3" stroke-miterlimit="10" stroke-linejoin="round"/>
<path fill-rule="evenodd" clip-rule="evenodd" d="M534.051 11.595C537.767 11.595 539.652 9.46177 541.316 7.58223C541.741 7.09825 541.704 6.35583 541.228 5.92354C540.752 5.49124 540.022 5.52883 539.597 6.01282C538.063 7.74669 536.736 9.24562 534.051 9.24562C531.361 9.24562 530.04 7.74669 528.505 6.01282C526.841 4.13328 524.961 2 521.245 2C517.529 2 515.643 4.13328 513.98 6.01282C512.445 7.74669 511.124 9.24562 508.434 9.24562C505.744 9.24562 504.422 7.74669 502.888 6.01282C501.224 4.13328 499.343 2 495.623 2C491.907 2 490.022 4.13328 488.362 6.01282C486.828 7.74669 485.502 9.24562 482.817 9.24562C480.131 9.24562 478.805 7.74669 477.271 6.01282C475.607 4.13328 473.726 2 470.01 2C466.294 2 464.409 4.13328 462.75 6.01282C461.215 7.74669 459.894 9.24562 457.204 9.24562C454.514 9.24562 453.192 7.74669 451.658 6.01282L451.829 6.20547C451.792 6.13968 451.746 6.0739 451.69 6.01282C450.027 4.13328 448.146 2 444.425 2C440.709 2 438.824 4.13328 437.16 6.01282C435.626 7.74669 434.299 9.24562 431.614 9.24562C428.924 9.24562 427.603 7.74669 426.068 6.01282C424.405 4.13328 422.524 2 418.808 2C415.092 2 413.207 4.13328 411.547 6.01282C410.013 7.74669 408.691 9.24562 406.002 9.24562C403.312 9.24562 401.99 7.74669 400.456 6.01282C398.792 4.13328 396.911 2 393.195 2C389.479 2 387.594 4.13328 385.935 6.01282C384.4 7.74669 383.079 9.24562 380.389 9.24562C377.699 9.24562 376.377 7.74669 374.843 6.01282C373.179 4.13328 371.298 2 367.582 2C363.867 2 361.981 4.13328 360.322 6.01282L360.304 6.03161C359.869 6.51559 359.906 7.25801 360.382 7.6903C360.858 8.1226 361.584 8.08501 362.013 7.60103L362.032 7.58223C363.566 5.84836 364.888 4.34942 367.578 4.34942C370.268 4.34942 371.589 5.84836 373.124 7.58223C374.787 9.46177 376.668 11.595 380.384 11.595C384.1 11.595 385.986 9.46177 387.645 7.58223C389.179 5.84836 390.501 4.34942 393.191 4.34942C395.88 4.34942 397.202 5.84836 398.736 7.58223C400.4 9.46177 402.281 11.595 405.997 11.595C409.713 11.595 411.598 9.46177 413.257 7.58223C414.792 5.84836 416.113 4.34942 418.803 4.34942C421.493 4.34942 422.815 5.84836 424.349 7.58223C426.013 9.46177 427.894 11.595 431.61 11.595C435.325 11.595 437.211 9.46177 438.875 7.58223C440.409 5.84836 441.731 4.34942 444.421 4.34942C446.999 4.34942 448.321 5.72619 449.782 7.37078C449.819 7.43657 449.865 7.50235 449.92 7.56343L449.939 7.58223C451.602 9.46177 453.483 11.595 457.199 11.595C460.915 11.595 462.801 9.46177 464.46 7.58223C465.994 5.84836 467.316 4.34942 470.006 4.34942C472.695 4.34942 474.017 5.84836 475.551 7.58223C477.215 9.46177 479.096 11.595 482.812 11.595C486.528 11.595 488.413 9.46177 490.072 7.58223C491.607 5.84836 492.933 4.34942 495.618 4.34942C498.308 4.34942 499.63 5.84836 501.164 7.58223C502.828 9.46177 504.709 11.595 508.425 11.595C512.14 11.595 514.026 9.46177 515.69 7.58223C517.224 5.84836 518.546 4.34942 521.236 4.34942C523.925 4.34942 525.247 5.84836 526.781 7.58223C528.454 9.46647 530.335 11.595 534.051 11.595Z" fill="#585880" stroke="#585880" stroke-width="3" stroke-miterlimit="10" stroke-linejoin="round"/>
<path fill-rule="evenodd" clip-rule="evenodd" d="M355.051 11.595C358.767 11.595 360.652 9.46177 362.316 7.58223C362.741 7.09825 362.704 6.35583 362.228 5.92354C361.752 5.49124 361.022 5.52883 360.597 6.01282C359.063 7.74669 357.736 9.24562 355.051 9.24562C352.361 9.24562 351.04 7.74669 349.505 6.01282C347.841 4.13328 345.961 2 342.245 2C338.529 2 336.643 4.13328 334.98 6.01282C333.445 7.74669 332.124 9.24562 329.434 9.24562C326.744 9.24562 325.422 7.74669 323.888 6.01282C322.224 4.13328 320.343 2 316.623 2C312.907 2 311.022 4.13328 309.362 6.01282C307.828 7.74669 306.502 9.24562 303.817 9.24562C301.131 9.24562 299.805 7.74669 298.271 6.01282C296.607 4.13328 294.726 2 291.01 2C287.294 2 285.409 4.13328 283.75 6.01282C282.215 7.74669 280.894 9.24562 278.204 9.24562C275.514 9.24562 274.192 7.74669 272.658 6.01282L272.829 6.20547C272.792 6.13968 272.746 6.0739 272.69 6.01282C271.027 4.13328 269.146 2 265.425 2C261.709 2 259.824 4.13328 258.16 6.01282C256.626 7.74669 255.299 9.24562 252.614 9.24562C249.924 9.24562 248.603 7.74669 247.068 6.01282C245.405 4.13328 243.524 2 239.808 2C236.092 2 234.207 4.13328 232.547 6.01282C231.013 7.74669 229.691 9.24562 227.002 9.24562C224.312 9.24562 222.99 7.74669 221.456 6.01282C219.792 4.13328 217.911 2 214.195 2C210.479 2 208.594 4.13328 206.935 6.01282C205.4 7.74669 204.079 9.24562 201.389 9.24562C198.699 9.24562 197.377 7.74669 195.843 6.01282C194.179 4.13328 192.298 2 188.582 2C184.867 2 182.981 4.13328 181.322 6.01282L181.304 6.03161C180.869 6.51559 180.906 7.25801 181.382 7.6903C181.858 8.1226 182.584 8.08501 183.013 7.60103L183.032 7.58223C184.566 5.84836 185.888 4.34942 188.578 4.34942C191.268 4.34942 192.589 5.84836 194.124 7.58223C195.787 9.46177 197.668 11.595 201.384 11.595C205.1 11.595 206.986 9.46177 208.645 7.58223C210.179 5.84836 211.501 4.34942 214.191 4.34942C216.88 4.34942 218.202 5.84836 219.736 7.58223C221.4 9.46177 223.281 11.595 226.997 11.595C230.713 11.595 232.598 9.46177 234.257 7.58223C235.792 5.84836 237.113 4.34942 239.803 4.34942C242.493 4.34942 243.815 5.84836 245.349 7.58223C247.013 9.46177 248.894 11.595 252.61 11.595C256.325 11.595 258.211 9.46177 259.875 7.58223C261.409 5.84836 262.731 4.34942 265.421 4.34942C267.999 4.34942 269.321 5.72619 270.782 7.37078C270.819 7.43657 270.865 7.50235 270.92 7.56343L270.939 7.58223C272.602 9.46177 274.483 11.595 278.199 11.595C281.915 11.595 283.801 9.46177 285.46 7.58223C286.994 5.84836 288.316 4.34942 291.006 4.34942C293.695 4.34942 295.017 5.84836 296.551 7.58223C298.215 9.46177 300.096 11.595 303.812 11.595C307.528 11.595 309.413 9.46177 311.072 7.58223C312.607 5.84836 313.933 4.34942 316.618 4.34942C319.308 4.34942 320.63 5.84836 322.164 7.58223C323.828 9.46177 325.709 11.595 329.425 11.595C333.14 11.595 335.026 9.46177 336.69 7.58223C338.224 5.84836 339.546 4.34942 342.236 4.34942C344.925 4.34942 346.247 5.84836 347.781 7.58223C349.454 9.46647 351.335 11.595 355.051 11.595Z" fill="#585880" stroke="#585880" stroke-width="3" stroke-miterlimit="10" stroke-linejoin="round"/>
</svg>
